<?xml version="1.0" encoding="utf-8"?>
<svg xmlns="http://www.w3.org/2000/svg" xmlns:xlink="http://www.w3.org/1999/xlink" style="margin: auto; background: rgb(5, 42, 58); display: block; shape-rendering: auto;" width="230px" height="230px" viewBox="0 0 100 100" preserveAspectRatio="xMidYMid">
<g transform="translate(50 50)">
<g>
<animateTransform attributeName="transform" type="rotate" values="0;40" keyTimes="0;1" dur="1.1494252873563218s" repeatCount="indefinite"></animateTransform><path d="M17.549928774784245 -4 L22.549928774784245 -4 L22.549928774784245 4 L17.549928774784245 4 A18 18 0 0 1 16.015175853803484 8.216698994836667 L16.015175853803484 8.216698994836667 L19.845398069398374 11.430637043269364 L14.703097191906059 17.558992588221187 L10.872874976311168 14.345054539788492 A18 18 0 0 1 6.986744161974541 16.588713211551845 L6.986744161974541 16.588713211551845 L7.854985050309193 21.512751976612883 L-0.023476973788471245 22.901937397948323 L-0.8917178621231233 17.977898632887285 A18 18 0 0 1 -5.310862772254364 17.198684153570667 L-5.310862772254364 17.198684153570667 L-7.810862772254363 21.528811172492862 L-14.739066002529874 17.52881117249286 L-12.239066002529874 13.198684153570666 A18 18 0 0 1 -15.123457991680356 9.76119963805062 L-15.123457991680356 9.76119963805062 L-19.821921095609895 11.471300354678965 L-22.55808224221525 3.953759388391698 L-17.85961913828571 2.243658671763354 A18 18 0 0 1 -17.85961913828571 -2.2436586717633498 L-17.85961913828571 -2.2436586717633498 L-22.55808224221525 -3.953759388391693 L-19.8219210956099 -11.471300354678961 L-15.123457991680358 -9.761199638050618 A18 18 0 0 1 -12.239066002529881 -13.198684153570658 L-12.239066002529881 -13.198684153570658 L-14.739066002529883 -17.52881117249285 L-7.810862772254377 -21.52881117249285 L-5.310862772254375 -17.19868415357066 A18 18 0 0 1 -0.8917178621231318 -17.977898632887285 L-0.8917178621231318 -17.977898632887285 L-0.023476973788481903 -22.901937397948327 L7.854985050309183 -21.512751976612886 L6.986744161974533 -16.588713211551845 A18 18 0 0 1 10.872874976311163 -14.345054539788496 L10.872874976311163 -14.345054539788496 L14.703097191906052 -17.558992588221194 L19.84539806939837 -11.430637043269371 L16.01517585380348 -8.216698994836673 A18 18 0 0 1 17.54992877478424 -4.000000000000004 M0 -33A33 33 0 1 0 0 33 A33 33 0 1 0 0 -33" fill="#517b89"></path></g></g>
<!-- [ldio] generated by https://loading.io/ --></svg>